<?xml version="1.0" encoding="UTF-8"?>
<svg xmlns="http://www.w3.org/2000/svg" viewBox="0 0 128 128" role="img" aria-label="Zhulong">
  <defs>
    <linearGradient id="gold-bright" x1="36" y1="42" x2="92" y2="86" gradientUnits="userSpaceOnUse">
      <stop offset="0%" stop-color="#F5DC78"/>
      <stop offset="45%" stop-color="#D4A820"/>
      <stop offset="100%" stop-color="#B8860B"/>
    </linearGradient>
    <linearGradient id="gold-rim" x1="64" y1="42" x2="64" y2="86" gradientUnits="userSpaceOnUse">
      <stop offset="0%" stop-color="#E8C547"/>
      <stop offset="100%" stop-color="#8A6914"/>
    </linearGradient>
    <clipPath id="icon">
      <rect width="128" height="128" rx="26"/>
    </clipPath>
  
  </defs>
  <g clip-path="url(#icon)">
    <rect width="128" height="128" fill="#0A0A0A"/>
    <path id="eye-upper" fill="url(#gold-bright)" d="M 36 64 C 40 50, 52 42, 64 42 C 76 42, 88 50, 92 64 L 36 64 Z"/>
    <path id="eye-lower" fill="#141414" d="M 36 64 L 92 64 C 88 78, 76 86, 64 86 C 52 86, 40 78, 36 64 Z"/>
    <path id="eye-rim" fill="none" stroke="url(#gold-rim)" stroke-width="1.6" d="M 36 64 C 40 50, 52 42, 64 42 C 76 42, 88 50, 92 64 C 88 78, 76 86, 64 86 C 52 86, 40 78, 36 64 Z"/>
    <path id="pupil" fill="#0A0A0A" d="M 62 48 L 66 48 L 66 80 L 62 80 Z"/>
  </g>
</svg>
